<?xml version="1.0" encoding="UTF-8"?>
<svg id="Layer_1" data-name="Layer 1" xmlns="http://www.w3.org/2000/svg" viewBox="0 0 1536 1024">
  <path d="M866.2,362.83l-72.1,92.44c13.08,12.57,25.91,25.44,38.97,38.02,17.16,16.53,39.55,29.16,38.04,55.99-.96,16.98-4.38,35.74-6.03,52.97-2.08,21.63-2.71,45.68-6.07,66.93-5.82,36.84-61.15,34.34-58.93-7.93,1.67-31.67,8.59-65.11,11.03-96.97.26-3.35.09-6.88.26-10.23-5.4-4.57-10.46-9.66-15.79-14.28-23.48-20.35-51.49-40.21-73.51-61.49-11.92-11.52-15.37-24.5-13.88-40.92,1.97-21.71,26.63-62.56,37.72-83.28,4.19-7.83,9.03-15.45,13.18-23.31l-53.33-1.85c-1.93,1.08-7.31,13.59-9.25,16.76-12.93,21.18-35.05,42.01-61.83,38.99l-8.58-2.91c32.9-2.85,76.63-42.37,64.03-77.55-1.8-5.02-4.04-7.02-7.04-10.96-.66-.86-1.37-.99-1-2.5l14.49-4.01c30.67,1.7,63.66-2.22,94.05-.04,6.36.46,24.99,6.3,30.39,9.61,2.81,1.72,3.87,4.92,6.02,6.98,20.44,19.5,42.23,23.45,69.43,15.49l56.63,14.45c31.68,15.22,65.35,26.86,97,42,26.98,12.91,10.74,52.41-18.71,41.71-28.98-10.53-57.98-27.02-87.06-37.94l-78.12-16.2Z"/>
  <path d="M1065.09,751.77c12.71-5.38,25.84-11,36.49-20.01,40.67-34.42-29.07-62-54.96-71.01-18.67-6.5-38.01-11.46-57.32-15.68-36.62-8.01-73.92-12.9-111.21-16.3l2.94-20.56c1.81-1.26,4.42.44,6.54.58,54.31,3.77,118.63,14.85,170.04,32.95,34.21,12.05,106.21,43.07,77.68,90.73-20.73,34.62-101.37,56.07-139.18,64.82-34.5,7.98-69.57,12.71-104.23,19.77-11.01,2.24-37.76,11.24-46.85,9.27-7.56-1.64-20.41-8.98-27.61-9.25-14.19-.53-29.43.7-43.85.67-84.74-.14-169.3-4.2-252.51-23.46-36.58-8.47-109.38-29.01-129.4-62.6-9.63-16.16-6.91-33.75,4.9-47.94,26.74-32.13,103.61-54.25,144.11-61.9,2.02-.38,1.33-.39.91.91-2.34,7.18-3.99,14.33-3.57,21.93-27.35,6.23-55.01,13.3-80.62,24.88-14.55,6.58-46.2,23.43-44.1,42.41,2.34,21.19,41.88,37.97,59.53,44.54,78.28,29.13,183.63,37.46,266.71,39.29,16.94.37,33.98-.26,50.91-.18l1.64-1.36v-34c0-1.76,4.94-5.61,6.76-6.24l219.8-57.2c13.71-.64,26.92,5.39,40.45,7.43,2.01,0,5.99,5.96,5.99,7.01v40.5ZM1035.08,717.77c-21.37-.28-42.6,6.09-63.22,11.27-38.33,9.62-80.34,20.12-117.78,32.22-4.59,1.48-10.86,2.72-13.99,6.5,9.27,3.35,16.6,3.68,26.25,1.76,32.74-6.5,72.22-20.32,104.75-30.25,19.34-5.9,42.26-11.91,60.77-19.23,1.26-.5,2.95-.55,3.23-2.27Z"/>
  <path d="M563.4,661.45c-3.8-3.6-7.82-11.92-8.32-17.18-1.94-20.38,8.57-27.06,24.33-35.69,36.64-20.07,74.92-37.4,111.65-57.35,9.12-17.09,19.11-33.83,27.92-51.08.71-1.38,1.2-2.81,1.12-4.39l48.55,39.99c.48.84-1.83,4.68-2.37,5.7-7.01,13.31-16.2,30.19-24.37,42.63-5.91,9-9.03,10.18-17.86,15.14-42.11,23.65-85.09,45.81-127.96,68.04-10.77,3.27-24.21,2.23-32.68-5.8Z"/>
  <path d="M903.77,231.08c21.84,21.26,16.73,58.43-9.38,73.5-37.33,21.55-81.18-12.51-69.58-53.58,9.51-33.65,54.18-44.04,78.96-19.92Z"/>
  <path d="M651.87,293.03c11.98-1.02,26.39,5,28.14,18.31,4.06,30.72-40.29,68.19-69.92,57.92-7.53-2.61-14.16-9.82-15.03-17.97-2.96-27.92,30.89-56.05,56.8-58.25ZM630.08,315.77c-5-.21-10.85,3.86-13.98,7.51-3.5,4.09-7.09,10.21-5.01,15.49,2.6.58,1.7-.77,2.55-1.9,3.62-4.82,6.74-9.66,11.43-13.61l5.01-7.49Z"/>
  <path d="M791.09,602.77l-3.03,20.97c-21.6.9-44.01-1.08-65.52-.02-3.47.17-6.8,1.7-10.45,1.04-.34-.28.52-1.13,1.01-1.49,9.78-7.31,25.72-10.81,34.49-20.51h43.5Z"/>
  <path d="M486.78,336.97l82.76-.16c7.56,1.11,8.16,11.81.07,11.99l-81.99-.07c-7.26-1.07-7.83-9.8-.84-11.76Z"/>
  <path d="M518.59,377.77c-4-1.11-4.88-9.96,2.05-10.95l66.28.13,7.17,10.83h-75.5Z"/>
  <path d="M592.59,309.77c.82,1.02,3.16.5,2.43,2.41-.46,1.21-5.53,8.1-6.6,8.42-4.26.52-8.58-.07-12.84.16-6.52.35-9.69.18-15.97,0-5.1-.14-23.58.98-26.52-.48-2.08-1.03-2.34-3.96-2-5.99.82-4.89,5.88-3.16,9.47-3.56.93-.1,1.78-.96,2.04-.96h50Z"/>
</svg>