<?xml version="1.0" encoding="UTF-8"?>
<svg id="Layer_1" data-name="Layer 1" xmlns="http://www.w3.org/2000/svg" viewBox="0 0 1536 1024">
  <path d="M798.08,366.77l264.39,32.11,1.42,1.35-.8,9.54-261.48-32.02-6.44.09c-2.63,11.9-15.38,18.66-27.08,17.91,1.89-3.02,5.26-4.03,7.45-7.05,15.96-22.01-4.57-46.2-28.85-43.85-26.22,2.54-54.72,9.68-81.04,10.94-8.86.42-18.39-2.79-27.15-3.94-21.32-2.81-42.89-3.25-64.4-3.09l9.79,2.7,76.81,14.24c26.23-3.62,52.55-6.61,78.81-10.04,6.25-.82,9.37-3.01,16.64-1.47,16.63,3.52,20.7,24.36,6.89,34-7.38,5.15-13.37,2.84-21.35,3.65-29.38,2.96-61.62,12.76-91.11,10.92-16.14-1.01-33.81-3.31-49.97-5.03-1.16-.12-3.76-.42-4.51.51,1.03,1.51,2.68,1.38,4.19,1.81,14.05,4.02,30.51,8.32,44.79,11.21,4.72.96,9.24,1.58,14.05,1.95l19.59,38.41,4.36,5.64,97.04,66.96c26.18,35.31,57.02,71.29,80.8,108.2,19.01,29.51-19.64,60.44-43.24,32.24-16.24-19.4-32.01-44.94-47.17-65.83-6.37-8.78-13.77-17.18-19.23-26.41,11.97-29.43-10.6-44.87-30.7-60.67-13.99-10.99-28.89-20.86-43.48-31.02-.52,2.21,1.21,2.23,2.3,3.2,4.79,4.27,9.05,8.92,13.68,13.32,6.59,6.27,13.3,12.77,20,19,8.83,8.21,28.81,21.41,30.8,33.2,1.76,10.43-.49,17.83-6.35,26.2-16.27,23.22-37.13,46.66-54.85,69.15-7.59,9.63-15.23,24.66-26.88,29.12-22.59,8.65-42.99-12.67-35.19-35.19,1.87-5.4,4.52-6.66,7.48-10.52,13.31-17.35,26.59-34.73,40.02-51.98,2.35-3.01,14.46-16.08,13.87-18.87-20.41-17.26-40.82-34.56-61.39-51.63-6.36-5.27-13.8-9.08-18.91-16.09l-67.45-110.55c-5.15-12.76-2.25-28.41,8.57-37.25,20.21,4.11,39.26-4.37,52.29-19.64,4.01-4.7,2.56-8.1,10.51-7.5,20.42,5.1,41.19,8.71,61.72,13.28,7.93,1.77,16.46,5.26,24.36,6.64,12.15,2.12,24.7.52,36.96,1.04,7.86.33,16.11,1.7,23.94,2.06,11.88.55,22.41-2.36,33.19,3.81,8.97,5.13,13.29,14.92,12.32,25.18Z"/>
  <path d="M1069.09,727.77c1.04,1.07,19.97-7.46,22.68-8.82,17.98-8.99,46.24-27.07,28.3-49.67-18.39-23.18-72.35-37.85-100.79-44.21-51.55-11.54-105.05-15.97-157.56-19.44-4.45-6.41-9.89-12.33-14.13-18.87-.63-.98-2.02-1.17-1.51-2.98l20.51-.02c6.55.91,13.39,1.56,19.97,2.03,63.15,4.45,130.04,11.54,190.04,32.96,33.11,11.82,90.85,39.65,72.97,84.02-14.75,36.59-88.87,59.24-124.27,68.73-46.2,12.39-93.6,19.1-140.43,28.57-11.7,2.37-29.83,9.27-41.08,7.48-7.91-1.26-17.57-7-25.2-7.8s-15.64.92-22.97,1.07c-106.64,2.16-249.02-6.05-348.23-46.86-35.47-14.59-95.28-50.09-58.3-94.67,34.68-41.82,130.53-61.24,182.61-69.39,24.04-3.77,48.33-5.71,72.38-9.12.42,1.7-.65,2-1.49,3-5.8,6.92-11.39,13.94-16.94,21.06-52.91,9.22-107.22,15.33-157.83,34.17-15.73,5.86-35.07,14.26-47.76,25.24-46.89,40.6,38.52,68.09,68.01,77.03,71.88,21.78,160.64,30.44,235.46,32.54,21.81.61,43.74-.55,65.55-.05v-31.5c0-1.25,5.62-6.39,7.76-6.24l228.85-56.21,36.67,8.16c2.62.41,6.71,4.98,6.71,7.29v32.5ZM1039.08,701.77c-20.27-.62-40.37,4.93-60.02,9.47-40.87,9.45-83.94,20.18-124.2,31.8-2.45.71-15.76,4.22-15.76,6.22,13.64,7.67,31.53,1.55,46.01-1.98,41.72-10.18,85.04-23.3,126.22-35.78,7.96-2.41,17.41-4.99,25.01-7.99,1.07-.42,2.98-.3,2.75-1.73Z"/>
  <path d="M543.83,245.01c50.62-6.9,72.46,56.8,30.27,81.27-36.09,20.94-78.4-14.38-63.51-53.51,5.13-13.48,18.66-25.77,33.24-27.76Z"/>
  <path d="M1106.84,368.02c54.72-7.83,70.69,64.61,22.52,81.52-28.37,9.96-58.74-13.25-56.28-43.28,1.43-17.42,16.01-35.7,33.76-38.24ZM1117.4,386.45c6.48,6.49,24.12,5.81,17.73-4.24-6-9.44-28.14-6.19-17.73,4.24ZM1084.74,387.91c-1.8.53-2.57,3.01-3.62,4.37,1.55,1.81,3.95,2.85,6.35,2.42,2.74-.76,2.8-8.43-2.73-6.79Z"/>
  <path d="M937.09,408.77l20.51-.02c31.63,3.38,63.54,6.45,94.96,12.04,3.74,1.02,6.13,4.87,3.04,7.99-1.55,1.57-8.42,1.16-11.03,1-25.46-1.64-60.4-8.04-85.69-13.31-7.07-1.47-16.68-2.59-21.8-7.7Z"/>
  <path d="M398.77,374.95l93.87-.23c2.99-.14,4.91,2.62,5.27,5.39-.91,2.46-2.33,4.86-5.27,4.71h-92.1c-5.7-.63-7.45-7.34-1.77-9.87Z"/>
  <path d="M953.32,436.99c3.56-2.56,6.79-.47,10.25-.21,25.6,1.9,53.59,4.68,78.9,9.1,4.01.7,10.42,1.01,10.24,6.41-.16,4.73-5.75,4.69-9.14,4.49-20.56-1.26-44.38-6.78-65.08-9.91-6-.91-12.85-1.01-18.79-2.21-4.87-.98-9.78-1.68-6.38-7.66Z"/>
  <path d="M430.82,348c23.44.47,47.53-1.91,70.75.78,2.82.33,7.46-1.15,9.03,1.97,1.9,3.77-.97,7.84-4.96,8.07-23.5-1.76-49.93,2.16-73.07-.04-9.28-.88-9.97-9.35-1.75-10.78Z"/>
  <path d="M519.86,400.99c2.22,2.23,1.3,8.28-2.26,8.79h-68.04c-7.31.42-7.32-10.44,0-10.03,21.25,1.18,44-1.5,65.07-.03,1.51.11,4.18.22,5.23,1.27Z"/>
  <polygon points="755.09 603.77 734.09 603.77 745.58 589.78 755.09 603.77"/>
</svg>