<?xml version="1.0" encoding="UTF-8"?>
<svg id="Layer_1" fill="#12078C" data-name="Layer 1" xmlns="http://www.w3.org/2000/svg" viewBox="0 0 1536 1024">
  <path d="M336.59,803.77l1.36-1.64c0-20.27.46-40.62.18-60.91-.08-6.03-1.2-12.46-.74-18.79.65-8.79,5.89-10.24,13.31-11.55,49.36-8.73,101.25-15.76,151-23,21.6-3.14,43.18-6.8,64.83-7.07,77.98-.96,156.2.76,234,1,105.83.33,211.5-.5,317,1,3.34.49,6.01,3.14,6.5,6.5l-.09,69.33c-38.38,15.77-77.05,31.65-116.34,45.15-20.87,7.17-42.04,13.92-64.01,16.99H311.08c-.49-4.98.62-10.54,4.65-13.87.81-.67,5.26-3.14,5.86-3.14h15ZM1050.08,702.77l-119.48,18.01c-172.62.28-346.08-.18-519.06-.06-10.55,1.89-21.37,2.24-31.67,5.33-3.13.94-8.69,1.68-8.78,5.72,3.24.2,6.4,1.44,9.59,1.91,43.57,6.43,101.58,1.73,146.96,2.04,106.51.73,213.39,2.13,319.91,3.09,28.25.26,56.9,1.31,84.76-3.34,37.89-10.77,78.18-18.48,115.58-30.46,1.69-.54,2.66.5,2.2-2.24Z"/>
  <path d="M810.08,233.77c-1.66,3.06-5.49,4.12-8.32,6.17-14.04,10.2-26.66,22.98-35.68,37.81.74.69,4.97-2.83,5.92-3.58,16.49-12.89,34.84-25.72,53.39-35.61,12.24-6.52,25.7-12.34,39.72-8.34s29.25,24.99,39.45,35.55c14.72,15.25,33.79,32.01,47.04,47.96,10.01,12.05,10.48,28.55-3.59,37.44-18.37,11.6-30.77-3.45-42.45-15.4-14.38-14.72-30.67-34.41-46.46-47.54-4.23-3.52-6.61-4.29-12.29-3.25s-22.44,13.9-28.05,17.95c-11.37,8.19-22.16,18.6-34.75,24.39-33.63-27.47-73.73-45.56-115.93-55.56,3.86,4.33,10.56,5.48,15.69,7.81,35.56,16.15,65.22,35.28,96.23,58.77,10.07,7.63,25.46,18.43,34.11,26.89,18.3,17.9-3.41,45.3-27.73,31.73-40.75-31.9-77.67-60.25-128.52-74.48-17.99-5.03-34.98-3.54-46.6-20.4-4.16-6.04-6.79-10.21-6.07-17.74,1.9-19.71,15.65-24.91,31.64-31.36,37.49-15.12,79.35-24.45,119.75-26.25,18.39-.82,36.04,1.34,53.51,7.02Z"/>
  <path d="M1176.09,773.77c10.42-.66,21.06-1.72,31.55-1.05,8.24.53,17.45,1.69,18.49,11.52.6,5.71.61,14.04-4.51,17.55-14.01,4.73-28.54,13.31-42.51,17.49-2.45.73-4.89,1.34-7.46,1.54-27.63,2.15-58.07-1.66-86-.09-9.39-1.86-10.44-11.31-9.58-19.49.57-5.4,3.74-8.34,8.34-10.66,12.54-6.29,27.9-9.95,40.63-16.37l16.07-1.43.12-484.38,1.55-1.45c4.58-1.33,9.2-.84,13.84-1.16,1.97-.14,3.78-.99,5.95-1.08,2.3-.09,11.71.98,12.54,2.78l.99,134.29c.86.86,10.47-1.58,12,1.5v18.5h-12v332Z"/>
  <polygon points="1129.09 421.77 1129.09 441.77 643.09 441.77 650.09 421.77 1129.09 421.77"/>
  <path d="M597.77,372.46c-30.13,31.64-84.87,13.06-87.73-31.14-2.61-40.25,42.87-67.35,77.35-46.36,27.61,16.8,32.87,53.89,10.38,77.5ZM586.08,363.77l-5.65,3.84-15.34,8.15c3.82,1.84,24.28-8.39,20.99-11.99Z"/>
  <path d="M461.09,680.77l-34,5c-1.05-58.79,1.38-117.77.05-176.55-.2-8.95-.77-17.96-1.09-26.91-.36-10.05,2.52-19.99.05-29.54,1.71-.43,2,.65,3,1.49,2.97,2.48,5.53,5.95,8.51,8.49,2.18,1.86,4.89,2.33,6.09,5.08l17.4-7.07v220Z"/>
  <path d="M679.08,341.77c-3.91,5.23-8.06,10.32-11.82,15.67-5.85,8.32-15.37,21.69-19.37,30.63-5.49,12.3-10.74,31.54-15.08,44.92-2.64,8.16-4.34,18.04-7.24,25.76-8.86,23.62-44.29,15.36-40.24-13.24,2.69-18.96,12.55-40.75,15.99-60.01,12.73-10.5,20.48-24.23,23.3-40.7,3.89-2.6,6.92-10.71,9.89-13.11,1.02-.82,1.79-.93,3.05-1.01,4.63-.31,15.77,2.98,20.74,4.36,7,1.95,13.73,4.92,20.78,6.73Z"/>
  <path d="M948.08,291.77c8.07-2.51,13.71-4.85,22.51-4.01,15.05,1.44,18.99,10.64,27.97,20.03,17.31,18.1,38.39,37.78,54.04,56.96,13.92,17.06.21,40.78-20.95,37.95-10.51-1.41-28.14-20.95-36.54-28.45-9.34-8.33-18.87-16.55-28.57-24.46l-.43-.51c.83-1.4,2.11-2.78,2.72-4.26,5.39-13.12,2.85-26.53-6.22-37.27-3.86-4.57-10.04-8.87-13.53-13.47-.66-.87-1.37-1-.99-2.5Z"/>
  <path d="M461.09,343.27l-35,19.5c0-8.49-.01-17.01-.02-25.51,0-3.63-.04-7.27-.03-10.94.05-13.2,1.15-26.26,1.16-39.43,1.42-2.07,21.88-2.43,25.43-2.16,2.75.21,6.51.62,8.46,2.54v56Z"/>
  <path d="M480.81,383.95c7.88-1.68,11.01,6.67,6.25,12.29-35.82,18.91-69.82,40.94-103.24,63.75-7.57,3.15-12.1-3.98-8.62-10.61,33.67-24.05,69.01-46,105.61-65.43Z"/>
  <path d="M488.72,344.01c3.42.43,6.75,1.01,7.92,4.7,2.59,8.22-3.69,8.54-8.91,11.2-28.15,14.32-55.53,30-82.35,46.65-8.15,1.71-13.65-6.23-7.26-12.27,29.87-17.36,59.25-35.62,90.61-50.28Z"/>
  <path d="M532.81,406.5l-80.72,44.84c-9.15.91-12.09-8.16-4.34-13.42,17.56-9.16,34.25-19.91,51.66-29.34,4.65-2.52,25.47-14.28,28.97-13.67,5.11.89,7.54,7.35,4.44,11.59Z"/>
  <polygon points="578.09 421.77 572.59 441.77 496.09 441.77 513.4 431.58 532.59 421.77 578.09 421.77"/>
  <path d="M892.08,340.76c-20.4-5.79-42.41-17.86-63.6-19.9-4.11-.39-8.38.5-12.4-.59,7.37-5.86,14.88-12.06,22.67-17.33,2.38-1.6,9.17-6.71,11.64-6.07l41.69,43.88Z"/>
</svg>