<?xml version="1.0" encoding="UTF-8"?>
<svg id="Layer_1" fill="#12078C" data-name="Layer 1" xmlns="http://www.w3.org/2000/svg" viewBox="0 0 1536 1024">
  <path d="M957.09,926.27c-56.11,40.42-112.1,81.45-168.68,121.32-17.48,12.32-36.83,29.03-58.12,32.88-73.2,13.23-115.73-78.55-58.7-126.7l141.32-101.68.18-136.84-23.49-185.51-262.01-207.99c-4.55-4.49-9.25-8.81-12.92-14.08s-5.5-10.87-9.19-15.85l-210.16,115.7c-27.42,11.54-50.02-25.64-19.93-43.93l232-127.76c12.82-26.95,42.06-45.52,72.2-41C710.52,125.05,839.91,51.63,970.18-19.64c27.32-12.51,48.95,24.01,23.86,41.86l-347.63,191.37-13.31,8.17,244.94,187.57c15.92.58,30.48-.11,46.06,3.94,15.63,4.06,28.33,11.92,41.54,20.46h236c58.28,4.46,88.94,72.89,50.44,118.53-9.73,11.54-32.15,25.51-47.49,25.51h-191.5l15.5,120,81.34,72.66,105.65,211.35c31.78,85.1-82.96,140.47-129.67,62.67l-87.37-174.63c-11.45-8.59-25.94-13.36-38.4-20.6l-3.05-.45v77.5ZM836.9,504.94l1.27,28.24c8.99,58.39,13.28,117.59,22.01,175.99,3.5,23.43,9.98,40.27,31.23,52.77l141.65,70.35,94.61,188.39c16.15,27.61,55.86,7.27,42.91-21.91l-98.65-197.35-90.66-81.34-.17-15.83c-10.26-63.24-13.68-128.82-24.13-191.87-3.25-19.59-11.48-35.63-28.96-46.04-21.39-12.74-43.41-7.12-66.91-9.09l-276.96-213.04c-18.3-8.71-37.66,5.9-34.8,25.8,1.03,7.16,5.14,11.18,10.26,15.74,27.1,24.17,60.23,48.06,89,71,56.55,45.1,113.05,90.42,170.01,134.99,5.9,4.61,12.06,9.06,18.3,13.19ZM1201.59,481.77h-202.5c4.52,15.6,6.74,31.86,8,48l191.55.04c17.69-.75,29.06-22.15,18.9-36.99-3.39-4.95-9.9-10.04-15.95-11.05ZM861.09,799.77v77.5l-158.49,113.51c-22.86,17.72-1.24,52.08,24.74,40.74l181.27-128.73.34-78.38-47.86-24.64Z"/>
  <path d="M923.86,146.04c94.62-7.17,160.74,94.57,114.04,178.04-47.86,85.55-172.27,80.82-213.67-7.95-35.26-75.59,16.98-163.83,99.63-170.09ZM925.86,194.04c-52.3,4.85-81.07,62.92-54.96,108.4,26.75,46.6,96.72,46.87,123.99.63,30.29-51.35-9.89-114.52-69.04-109.04Z"/>
</svg>