<?xml version="1.0" encoding="UTF-8"?>
<svg id="Layer_1" data-name="Layer 1" xmlns="http://www.w3.org/2000/svg" viewBox="0 0 1536 1024">
  <path d="M528.37,677.36c1.44-.2,7.5-2.33,8.86-3.14,1.75-1.04,3.14-2.98,4.63-4.37l69.44-97.56c.84-.91,1.91-.86,3.02-.98,3.31-.37,23.73-.34,25.54.56.61.3,2.2,1.89,2.5,2.5.96,1.96.81,16.36.51,19.5-1.18,12.38-17.14,24.62-21.03,36.5-2.8-1.79-8.84-.7-11.02,1.45l-42.96,65.54h537c-.24-3.74-2.11-7.47-3.52-10.98-4.96-12.44-10.9-24.59-16.04-36.96-12.37-13.54-30.28-16.35-47.96-15.07-10.03.72-20.95,4.3-30.97,5.03-35.52,2.56-65.04-14.22-98.49-21.53-28.16-6.16-55.77-7.5-84.23-2.19-27.25,5.09-46.84,18.37-76,13.42-20.56-3.49-32.53-10.56-55.33-8.75-13.15,1.05-27.02,8.48-40.2,10.8-2.01.35-14.61,1.76-15.26,1.23l15.54-22.95,5.02-15.08,434.74.25c4.79,1.98,9.43,4.36,11.58,9.42l43.65,107.35c.18,6.33,2.96,19.27-3.53,22.52H413.87c-.57-.61-3-2.73-3-3v-53.5h117.5Z"/>
  <path d="M807.86,268.38l-33.96-2.57-35.49,44.58c-20.98,17.15-46.69-5.87-32.98-28.98,14.76-15.34,26.56-36.92,40.92-52.08,12.36-13.04,27.41-8.25,43.01-6.96,22.37,1.85,44.7,1.62,64.44,13.56,12.72,7.7,23.03,16.65,34.59,25.41,11.06,8.38,29.85,13.95,43.23,18.77,10.01,3.61,28.46,11.4,37.99,13.01,2.04.35,3.52.35,5.55,0,17.96-3.06,37.86-12.52,56.2-15.8,27.1-4.13,37.2,30.18,12.51,41.51-20.98,4.83-42.15,13.17-62.97,18.03-8.01,1.87-12.83,1.95-20.81-.24l-71.54-24.18-28.68,42.39-55.28,7.72c-5.93,3.82-6.02,11.77.91,14.53l51.96-7.66c11.69-.95,20.47.58,29.43,8.38l79.18,94.82c12.37,26.48-18.09,48.19-40.71,31.71l-67.47-78.52c-1.52-.79-3.82-.63-5.53-.5-31.51,2.47-82.39,21.67-101.33-14.65-11.34-21.75-1.02-43.41,10.02-62.65,14.54-25.33,31.2-49.69,46.28-74.72l.52-4.95Z"/>
  <path d="M593.87,571.36l-10.18,15.32-27.46,37.54-121.81.19c-8.86,1.29-5.81,14.95-1.05,14.95h112.5c-4.96,5.93-9.4,14.46-14.48,20.02-2.1,2.3-3.89,3.48-7.09,3.91-26.31-.19-52.66.49-78.97.12-6.27-.09-13.59-.95-19.9-1.09-2.52-.06-12.23,1.04-13.06.72-.65-.25-1.09-.59-1.49-1.17v-87c0-.25,3.25-3.5,3.5-3.5h179.5Z"/>
  <path d="M894.18,247.05c-26.56-25.21-14.69-70.52,20.66-79.22s67.54,23.36,56.76,58.76c-9.94,32.65-52.68,43.94-77.42,20.46Z"/>
  <path d="M958.87,520.37c22.76-8.99,32.96-36.85,17.99-57.5l-80.99-95.5c13.23-2.26,25.67-1.71,36.49,7.01l66.01,78.96c8.83-8.2,19.2-13.22,31.19-8.17,11.85,4.99,16.8,18.21,12.83,30.21s-24.95,24.81-35,33c-13.53,11.02-22.45,25.08-42.78,16.75-2.18-.89-6.01-1.94-5.73-4.76Z"/>
  <path d="M597.57,321.56l79.76-.16c9.12,1.35,9.31,14.7.99,15.91h-79.91c-8.38-1.23-8.95-13.41-.84-15.75Z"/>
  <path d="M579.57,282.56l76.76-.15c8.78,1.29,8.81,14.62,0,15.91l-74.88-.03c-9.57-.92-10.8-12.62-1.88-15.73Z"/>
  <path d="M626.55,243.54l72.78-.14c10.18,2.55,8.71,15.64-1.94,15.97-21.26-1.98-47.27,2.64-67.94-.09-9.1-1.2-10.52-11.39-2.89-15.75Z"/>
  <path d="M636.66,659.14c-3.42,3.33-10.2-.99-6.31-4.8s9.39,1.79,6.31,4.8Z"/>
  <path d="M873.55,633.49c5.08-1.46,7.38,5.38,2.64,6.73-5.08,1.46-7.38-5.38-2.64-6.73Z"/>
  <path d="M845.95,666.43l5.23-.95c8.17,5.92-6.68,11.03-5.23.95Z"/>
  <path d="M797.55,672.53c2.74-.84,5.79.23,6.27,3.23-2.21,3.83-7.78,3.74-8.91-.79.65-.92,1.54-2.1,2.63-2.44Z"/>
  <path d="M703.36,655.75c8.22-.25,3.36,9.96-2.05,5.67-2.85-2.26-1.04-5.58,2.05-5.67Z"/>
  <path d="M961.09,660.15c-1.25-1.22-.68-3.26-.14-4.72,3.16-.38,6.16-.51,7.88,2.53-.39,3.7-5.52,4.35-7.74,2.18Z"/>
  <path d="M907.63,667.6c5.09,5.09-8.32,9.03-6.69-.16,2.4-.95,4.43-1.47,6.69.16Z"/>
  <path d="M816.5,637.49c6.4-2.14,7.78,6.06,1.29,6.44l-3.49-2.55,2.2-3.89Z"/>
  <path d="M759.51,647.48c3.73-.76,6.5,5.39,1.7,6.78-4.14,1.2-6.05-5.89-1.7-6.78Z"/>
  <path d="M996.51,678.49c5.36.97,6.17,4.94.69,6.75l-4.3-3.37,3.61-3.38Z"/>
  <path d="M1045.87,672.35l-5.3.89-2.69-3.36c2.9-3.74,8.45-2.61,7.99,2.47Z"/>
  <path d="M665.54,678.46c2.39-.68,3.82,2.08,5.32,3.41-1.89,2.73-5.57,3.89-7.98.98-.45-1.65,1.17-3.96,2.66-4.39Z"/>
  <path d="M737.54,678.46c4.4-1.24,6.27,6.59.83,6.58-4.06-.01-4.69-5.49-.83-6.58Z"/>
  <path d="M602.46,679.43c2.37-.68,4.16.6,5.36,2.54-3.53,8.76-10.55-1.05-5.36-2.54Z"/>
  <path d="M672.68,639.56c3.73,3.7-3.68,8.39-6.79,2.3,1.47-1.89,4.64-4.43,6.79-2.3Z"/>
  <path d="M924.95,680.44c3.11-1.49,5.99-1.51,6.92,2.4-3.44,3.61-7.92,3.71-6.92-2.4Z"/>
  <path d="M925.46,638.43c2.4-.66,5.1.83,5.41,3.41l-3.49,2.19-2.5-1.16c-1.74-1.22-1.18-3.95.59-4.44Z"/>
  <path d="M1012.94,656.3l1.51-4.87c6.73-1.9,5.15,8.39-1.51,4.87Z"/>
  <path d="M1073.87,684.35c-3.25,1.12-4.79,1.61-6.98-1.49,3.07-4.41,6.63-4.71,6.98,1.49Z"/>
  <path d="M789.45,640.44c3.83-1.18,6.04,2.81,3.45,4.45-4.24,2.69-7.09-3.33-3.45-4.45Z"/>
  <path d="M1068.54,655.46c2.44-.72,6.24,2.97,2.78,4.86l-5.44-2.46,2.66-2.4Z"/>
  <rect x="730.88" y="639.37" width="1.99" height=".99"/>
</svg>