<?xml version="1.0" encoding="UTF-8"?>
<svg id="Layer_1" fill="#12078C" data-name="Layer 1" xmlns="http://www.w3.org/2000/svg" viewBox="0 0 1536 1024">
  <path d="M764.32,110.54c34.98,14.66,68.88,32.16,100.69,52.8,162.24,105.25,250.48,277.13,303.58,458.42,41.34,141.14,62.13,287.68,76.49,434l-48,4.01-9.08-88.42c-37.69-290.92-107.58-640.78-389.23-791.77-14.03-7.52-28.59-14.23-43.09-20.77-1.17.26-2.8,4.27-3.45,5.59-19.48,39.75-39.99,80.5-58.33,120.67-4.8,10.52-8.14,21.81-12.95,32.05-14.65,31.15-43.77,55.05-76.86,64.14,26.31,15.64,37.84,45.02,45.72,73.28,5.87,21.04,9.53,43.11,12.19,64.81,1.24,10.1,1.38,20.45,3.15,30.35.77.55,11.08-1.81,13.14-2.23,24.12-4.99,49.47-12.68,73.59-16.41,44.2-6.85,78.78,20.77,85.12,64.3,10.47,71.83,13.58,145.02,24.11,216.89,2.3,94.66-130.82,105.84-143.92,11.92l-14.56-133.44c-.97-1.37-1.32-.45-2.28-.27-2.74.52-5.54,1.19-8.27,1.79-29.9,6.53-59.51,14.75-89.32,21.68l-1.5,1.5-61.34,161.66c-51.85,64.28-106.4,126.95-161.32,188.68-68.88,52.22-153.63-32.62-101.48-101.48l137.4-160.6,62.36-169.64c.45-50.59-2.39-102.99-19.59-150.96l-185.71-347.29c-2.5-5.17-5.35-10.49-6.99-16.01-2.27-7.67-2.47-15.13-3.52-22.98l-21.94.94-4.03-47.97c7.14-.34,14.37-.55,21.51-.99,6.2-.38,12.79-.48,19-1,9.87-.84,13.96-8.19,22.18-12.82,28.31-15.96,60.39-10.01,84.83,9.79,86.64.05,173.62,6.89,258.19,26.83l1.26-.26c41.85-42.18,112.16-18.7,122.25,39.22ZM621.09,608.77c-1.56-43.63-3.57-88.6-14.27-131.23-6-23.88-15.56-56.05-41.19-64.81-12.89-4.41-23.88-2.23-36.9-1.09l-1.16-.85L354.9,87.45c-14.83-28.01-55.97-8.92-43.56,20.56,58.7,113.49,122.43,224.5,180.93,338.07,30.85,59.89,32.41,128.03,32.87,194.23l-68.84,188.16-143.65,168.35c-14.23,22.19,13.69,47.68,33.96,32.96,7.47-5.42,20.65-22.64,27.48-30.52,41.49-47.85,81.81-96.8,123.48-144.52l67.03-177.97,2.21-2.79c58.68-15.96,118.15-29.08,177.3-43.2l21.45,192.06c4.92,21.27,31.68,25.9,44,7.89,6.33-9.25,2.52-19.44,1.54-29.43-5.33-54.02-11.77-108.05-18-162-1.49-12.92-1.59-28.39-4.05-40.95s-14.09-22.14-27.34-20.47l-140.59,30.9ZM617.09,114.77c-16.2-2.87-32.35-6.36-48.62-8.88-49.79-7.72-96.08-9.34-145.89-12.11-2.97-.17-6.17-1.77-9.48-1.01l57.01,110c1.52.35,1.6-.21,2.44-1.05,3.02-3.06,6.6-10.03,10.03-13.97,29.93-34.37,75.81-49.75,120.45-38.03l14.07-34.94ZM710.09,140.77l-44.55-13.75-19.3,44.12c12.44,10.45,23.23,22.46,31.35,36.61l32.5-66.98ZM522.49,215.13c-9.27,9.91-17.99,26.61-19.31,40.23-.82,8.48,2.15,11.99,5.72,19.09,7.42,14.76,16.59,33.02,25,47,3.33,5.53,4.63,6.75,10.49,9.51,62.58,29.42,125.04-41.04,91.5-100.5-22.84-40.48-80.94-50.01-113.4-15.32Z"/>
</svg>