<?xml version="1.0" encoding="UTF-8"?>
<svg id="Layer_1" data-name="Layer 1" xmlns="http://www.w3.org/2000/svg" viewBox="0 0 1536 1024">
  <path d="M812.09,273.77c-1.77,2.79-4.73,3.9-6.99,6.51-6.31,7.3-9.52,17.8-9.09,27.41-1.25.15-2.45.32-3.61.86-8.74,4.09-19.99,8.22-27.99,13.04-1.08.65-7.89,4.53-6.32,6.18,13.08-4.45,26.16-10.53,40.41-9.06,12.5,34.44,63.16,34.8,75.65.11,1.39-1,11.92,4.15,14.41,4.97,5.76,1.88,11.67,2.89,17.29,4.71,44.6,14.46,85.75,31.62,128.54,50.46,8.59,3.78,16.34,4.41,21.52,13.48,6.67,11.66,2.25,26.31-10.15,31.52-7.68,3.23-13.2,2.1-20.68-.7-25.22-9.41-50.49-23.32-75.75-33.25-16.4-6.45-33.46-11.63-50.17-17.19-.9,2.58-2.68,5.06-4.27,7.27-22.27,31.05-47.73,60.05-69.8,91.09,18.97,16.29,37.48,33.2,55.95,50.11,6.26,5.74,13.86,10.23,18.22,17.78,4.66,8.08,5.56,15.86,4.7,25.1-8.7,35.39-12.31,73.5-21.38,108.62-2.93,11.34-7.86,19.65-19.72,23.28-20.59,6.31-38.87-8.53-37.7-29.71l20.41-102.52c.12-4.87-8.11-9.44-11.53-12.55-18.14-16.47-35.88-33.56-54.49-49.51-3.71-3.18-23.04-19.95-25.99-20.05-4.8,1.09-1.66,6.27.06,8.98l19.21,20.54c-11.73,21.29-24.56,41.93-36.95,62.83-7.42,12.53-10.15,22.34-22.89,31.11-36.71,25.23-76.04,47.03-112.88,72.12-30.28,14.77-55.11-22.84-31.99-45.99,36.07-23.16,72.84-45.64,107.96-70.04,15.81-32.08,31.22-64.34,46.18-96.82,5.38-11.68,8.62-23.11,16.39-33.61,8.83-11.94,19.28-23.71,28.42-35.58,7.84-10.19,15.65-20.44,23.01-30.99-11.78-2.37-23.7-4.53-35.59-6.4-9.99-1.57-26.51-1.47-34.93-6.07-17.6-9.6-18.38-35.73-1.81-46.88,7.16-4.82,21.6-12.34,29.65-16.35,11.98-5.97,40.56-17.87,53.21-16.81,3.76.32,7.62,2.11,11.49,2.01Z"/>
  <path d="M1051.09,758.77c1.16,1.17,18.39-8.05,20.92-9.58,13.69-8.27,31.23-21.51,18.53-38.37-9.95-13.21-35.52-24.39-50.93-30.07-42.87-15.81-89.29-24.09-134.52-29.98,1.73-5.69,2.01-15.17,4.19-20.31.49-1.16.94-1.68,2.3-1.71,29.09,3.34,58.09,8.58,86.53,15.51,34.14,8.31,98.9,27.88,117.4,59.6,26.16,44.84-44.13,74.57-76.18,85.65-49.7,17.19-102.07,24.08-153.44,34.56-12.74,2.6-39.66,11.38-51.07,9.48s-19.39-8.48-32.24-7.79c-103.16,5.53-241.9-2.84-339.75-37.23-42.26-14.85-116.98-52.55-59.23-101.75,29.32-24.97,100.84-45.75,139.09-50.91.92-.12,3.06-.62,3.39.39-2.98,6.38-4.92,15.18-3.18,22.05l-.77.99c-24.07,5-48.15,10.44-71.31,18.71-17.76,6.34-48.67,18.81-58.58,35.42-5.41,9.07-2.81,15.29,3.85,22.83,19.54,22.09,79.91,38.71,108.78,45.22,58.01,13.07,117.52,18.16,176.72,20.28,24.54.88,49.43.87,73.99,2.09.79.04,5.56-.18,6.01-.33,2.46-.8.49-2.11.49-2.25v-30c0-2.37,4.15-9.52,7.55-9.45l217.04-52.96c8.2-.95,27.76,3.97,36.21,6.61,1.6.5,3.49,1.13,4.74,2.26.67.61,3.46,5.21,3.46,5.54v35.5ZM1023.08,728.77c-23.31,2.73-46.37,7.94-69.23,13.27-37.29,8.69-83.1,18.73-118.75,31.27-1.03.36-3.97.05-3.02,1.95.69,1.39,5,2.23,6.59,2.42,11.78,1.37,21.07-.76,32.43-3.39,21.97-5.08,45.18-11.87,66.99-18.01,27.24-7.68,56.25-15.7,82.78-25.27,1.61-.58,2.7.57,2.21-2.23Z"/>
  <path d="M896.83,223.02c37.23-5.12,66.21,26.24,54.76,62.76-8.92,28.43-48.11,41.5-72.01,22.99-4.83-3.74-3.4-8.57-4.77-14.23-2.14-8.81-6.47-13.25-12.7-19.3-1.54-1.5-3.67-1.53-4.04-3.96-3.28-21.43,18.02-45.41,38.77-48.27Z"/>
  <path d="M830.84,277.02c22.74-3.27,41.02,16.98,33.02,39.02-9.2,25.37-46.45,24.16-55.26-1.28-5.69-16.43,4.84-35.24,22.24-37.74ZM826.09,292.77c-5.52-.65-6.38,2.86-7.11,7.41-.27,1.68-1.49,2.17.62,3.58,2.94.55,3.84-9.44,6.49-10.99Z"/>
  <path d="M816.09,620.77l-4.59,22.06c-10.64-.31-21.32.2-31.96,0-29.35-.58-58.58-1.48-88-.1-2.61.12-4.85,1.24-7.45,1.04l37.52-23.97c25.62.74,51.43-1.04,77.03-.07,5.52.21,11.57,1.94,17.46,1.05Z"/>
  <path d="M580.76,334.94l100.34.31c5.09,4.78,3.91,10.78-3.48,11.55h-94.06c-7.11-.41-8.73-8.16-2.8-11.86Z"/>
  <path d="M613.77,365.95l89.85-.21c8.59.63,8.62,11.41,0,12.06h-87.06c-6.95-.34-9.15-8.54-2.79-11.85Z"/>
  <path d="M698.09,304.77l-4.58,12.06-63.87-.13c-2.44.26-5.48-3.32-5.54-5.42-.05-1.7,2.57-6.51,4.49-6.51h69.5Z"/>
</svg>