<?xml version="1.0" encoding="UTF-8"?>
<svg id="Layer_1" data-name="Layer 1" xmlns="http://www.w3.org/2000/svg" viewBox="0 0 1024 1024" fill="#4169E1">
  <path d="M288.79,89.66l446.77-.32c95.02,4.02,160.41,63.75,167.47,159.53v466.03c-7.81,95.06-73.17,154.27-167.5,158.5h-447.03c-1.7-.12-3.27-.92-4.97-1.03-95.65-6.11-156.93-67.38-162.53-163.47l-.03-455.06c4.55-96.2,71.42-162.53,167.82-164.18ZM723.02,222.39h-424l32.53,54.97,2.14,1.86c18.94.1,37.93.44,56.87.22,2.39-.03,4.51-1.07,6.91-1.09,21.8-.22,43.64.15,65.42.18l48.63,82.86,48.48-81.51,129.38-.62,33.64-56.86ZM362.02,334.39l151.5,255.99,33.08-56.97.27-2.3-119.36-196.72h-65.5ZM662.02,335.39c-2.14-.15-4.38.22-6.51,0-16.51-1.65-39.41-2.22-56.03-1.06-1.79.13-4.37.13-5.51,1.73l-66.8,115.03.63,4.01,32.24,54.28,101.99-173.99ZM769.02,610.39h-16v74.5c0,.59,2.3,5.16,2.98,6.02.84,1.06,5.74,4.48,6.52,4.48h18.5v-14c-3.85-.54-9.13,1.44-12-1.5v-69.5ZM805.02,610.39h-16v23.51c-.68,14.35-2.53,32.67-.91,46.9.38,3.33,2.14,8.1,4.49,10.51.99,1.02,5.93,4.08,6.92,4.08h28.5v-14h-21.5l-1.5-1.5v-30.5h23v-15h-23v-24ZM271.02,611.39h-73v16h28v68h17v-68h28v-16ZM351.02,612.39h-15.5l-1.36,1.64c-.17,3.59-.3,7.28-.15,10.88.78,18.36-.38,37.39.32,55.82.08,2.14,1.96,7.78,3.23,9.63.89,1.29,5.91,5.04,6.96,5.04h30.5v-14h-21.5c-.18,0-2.5-2.32-2.5-2.5v-28.5h22.5c2.98-3.49,1.06-9.88,1.36-14.36l-1.36-1.64h-22.5v-22ZM590.24,613.6l-28.72,56.77-28.98-56.01c-1.75-1.8-10.83-.92-14.06-.96-1.51-.02-3.77-1.77-4.39.57-.44,1.66-.09,3.62.7,5.14l40.86,77.13h12.23s39.92-77.57,39.92-77.57l.21-6.29-17.78,1.21ZM326.02,672.39v-24.5c0-.33-2.05-4.73-2.53-5.47-2.04-3.07-8.36-7.45-12.01-7.99-7.19-1.07-28.43-.83-35.98-.06-6.26.64-13.47,6.14-14.44,12.56-.92,6.12-.92,29.8,0,35.91.52,3.48,4.18,8.02,7.01,9.99.67.47,4.19,2.55,4.45,2.55h53.5v-14h-47.5c-2.64-2.11-1.19-5.98-1.5-9h49ZM394.74,634.61c-6.18,1.04-12.75,6.99-13.69,13.31-1.01,6.83-.79,26.81-.06,33.98s6.12,12.77,13.5,13.5c12.91,1.28,27.83-.95,40.98-.05,8.17-2.22,10.98-9.63,11.58-17.42s.79-26.81-1.53-33.56c-1.77-5.16-7.75-9.22-13.08-9.92-7.17-.93-30.77-1.01-37.7.16ZM522.02,695.39v-49.5c0-.4-3.74-5.79-4.49-6.51-1.3-1.24-8.7-4.99-10.01-4.99h-51.5v61h17v-46h31.5l1.5,1.5v44.5h16ZM652.02,658.39h-40.5c-1.62,0-8.74,2.65-9.33,4.67-.73,2.5-.55,16.6-.21,19.86.29,2.82,1.91,6.06,3.99,8.01,1.15,1.08,7.5,4.46,8.54,4.46h52l1.36-1.64c.19-.59.13-1.21.18-1.82.91-10.76-1.5-21.66-1.06-32.06.08-1.94,1.03-3.81,1.09-5.97.18-6.2-2.82-13.58-8.38-16.72-1.12-.63-6.44-2.8-7.2-2.8h-47.5l-.86,13.36,1.36,1.64h45c2.64,2.11,1.19,5.98,1.5,9ZM694.02,634.39h-16v51.5c0,.36,3.42,5.4,4.05,5.95,1.55,1.35,6.42,3.21,8.52,3.48,8.51,1.12,31.26,1.01,39.96.1,7.87-.82,13.22-9.15,13.41-16.63.05-1.9-.99-3.71-1-5.85-.07-12.85.16-25.71.05-38.55h-16v46h-33v-46Z"/>
  <path d="M652.02,672.39l-.13,7.37-1.5,1.5c-9.16-.53-19.98,1.15-28.92.18-5.09-.56-6.03-5.59-2.95-9.05h33.5Z"/>
  <path d="M310.02,658.39h-33v-9h31.5c2.64,2.11,1.19,5.98,1.5,9Z"/>
  <polygon points="430.02 649.39 430.02 679.89 428.52 681.39 399.52 681.39 398.02 679.89 398.02 650.89 399.52 649.39 430.02 649.39"/>
</svg>